<?xml version="1.0" encoding="UTF-8" standalone="no"?>
<!DOCTYPE svg PUBLIC "-//W3C//DTD SVG 1.1//EN" "http://www.w3.org/Graphics/SVG/1.1/DTD/svg11.dtd">
<svg width="100%" height="100%" viewBox="0 0 479 452" version="1.1" xmlns="http://www.w3.org/2000/svg" xmlns:xlink="http://www.w3.org/1999/xlink" xml:space="preserve" xmlns:serif="http://www.serif.com/" style="fill-rule:evenodd;clip-rule:evenodd;stroke-linecap:round;stroke-linejoin:round;stroke-miterlimit:1.5;">
    <g transform="matrix(1,0,0,1,-5212.52,-3653.26)">
        <g id="Layer-1" serif:id="Layer 1">
        </g>
        <g id="Layer-4" serif:id="Layer 4">
        </g>
        <g id="Artboard4" transform="matrix(1,0,0,1,526.252,500.255)">
            <rect x="4686.27" y="3153" width="478.29" height="451.715" style="fill:none;"/>
            <g transform="matrix(0.799143,0,0,0.799143,988.074,293.836)">
                <path d="M4905.94,3706.71C4909.09,3698.86 4916.69,3693.71 4925.15,3693.71C4933.6,3693.71 4941.2,3698.86 4944.35,3706.71L4982.03,3800.81L5083.18,3807.58C5091.61,3808.14 5098.86,3813.78 5101.47,3821.82C5104.08,3829.86 5101.54,3838.68 5095.05,3844.1L5017.19,3909.02L5042.02,4007.31C5044.09,4015.5 5040.96,4024.13 5034.12,4029.1C5027.28,4034.07 5018.11,4034.38 5010.95,4029.88L4925.15,3975.89L4839.34,4029.88C4832.19,4034.38 4823.01,4034.07 4816.17,4029.1C4809.33,4024.13 4806.2,4015.5 4808.27,4007.31L4833.1,3909.02L4755.24,3844.1C4748.75,3838.68 4746.21,3829.86 4748.82,3821.82C4751.43,3813.78 4758.68,3808.14 4767.11,3807.58L4868.26,3800.81L4905.94,3706.71Z" style="fill:rgb(208,113,111);fill-opacity:0.64;stroke:rgb(176,34,88);stroke-width:46.93px;"/>
            </g>
            <g transform="matrix(1.21699,-0.00788225,0.00815474,1.25907,-1099.68,-1446.96)">
                <path d="M4907.46,3703.66C4911.21,3697.49 4917.92,3693.71 4925.15,3693.71C4932.37,3693.71 4939.08,3697.49 4942.83,3703.66L4992.8,3786L5086.54,3808.08C5093.58,3809.74 5099.24,3814.95 5101.47,3821.82C5103.7,3828.7 5102.19,3836.24 5097.47,3841.71L5034.61,3914.68L5042.57,4010.66C5043.17,4017.86 5039.97,4024.86 5034.12,4029.1C5028.27,4033.35 5020.63,4034.24 5013.97,4031.45L4925.15,3994.21L4836.32,4031.45C4829.66,4034.24 4822.02,4033.35 4816.17,4029.1C4810.32,4024.86 4807.12,4017.86 4807.72,4010.66L4815.68,3914.68L4752.82,3841.71C4748.1,3836.24 4746.59,3828.7 4748.82,3821.82C4751.05,3814.95 4756.71,3809.74 4763.75,3808.08L4857.49,3786L4907.46,3703.66Z" style="fill:rgb(208,113,111);fill-opacity:0.64;"/>
            </g>
        </g>
    </g>
</svg>
