<?xml version="1.0" encoding="UTF-8" standalone="no"?>
<!DOCTYPE svg PUBLIC "-//W3C//DTD SVG 1.1//EN" "http://www.w3.org/Graphics/SVG/1.1/DTD/svg11.dtd">
<svg width="100%" height="100%" viewBox="0 0 479 452" version="1.1" xmlns="http://www.w3.org/2000/svg" xmlns:xlink="http://www.w3.org/1999/xlink" xml:space="preserve" xmlns:serif="http://www.serif.com/" style="fill-rule:evenodd;clip-rule:evenodd;stroke-linejoin:round;stroke-miterlimit:2;">
    <g transform="matrix(1,0,0,1,-4686,-3653.26)">
        <g id="Layer-1" serif:id="Layer 1">
        </g>
        <g id="Layer-4" serif:id="Layer 4">
        </g>
        <g id="Artboard4" transform="matrix(1,0,0,1,-0.266537,500.255)">
            <rect x="4686.27" y="3153" width="478.29" height="451.715" style="fill:none;"/>
            <g transform="matrix(5.48936,0,0,5.48936,1656.21,2222.2)">
                <g opacity="0.37">
                    <g transform="matrix(0,1,1,0,595.29,179.354)">
                        <path d="M31.356,-31.356C14.048,-31.356 0.016,-17.318 0.016,0.001C0.016,17.318 14.048,31.356 31.356,31.356C48.664,31.356 62.695,17.318 62.695,0.001C62.695,-17.318 48.664,-31.356 31.356,-31.356" style="fill:rgb(59,147,255);fill-rule:nonzero;"/>
                    </g>
                </g>
            </g>
            <g transform="matrix(5.48936,0,0,5.48936,1656.21,2222.2)">
                <g opacity="0.37">
                    <g transform="matrix(0,1,1,0,595.29,179.354)">
                        <path d="M31.356,-31.356C14.048,-31.356 0.016,-17.318 0.016,0.001C0.016,17.318 14.048,31.356 31.356,31.356C48.664,31.356 62.695,17.318 62.695,0.001C62.695,-17.318 48.664,-31.356 31.356,-31.356" style="fill:rgb(59,147,255);fill-rule:nonzero;"/>
                    </g>
                </g>
            </g>
            <g transform="matrix(6.24203,0,0,6.24203,1208.15,2063.6)">
                <g opacity="0.37">
                    <g transform="matrix(0,1,1,0,595.29,179.354)">
                        <path d="M31.356,-31.356C14.048,-31.356 0.016,-17.318 0.016,0.001C0.016,17.318 14.048,31.356 31.356,31.356C48.664,31.356 62.695,17.318 62.695,0.001C62.695,-17.318 48.664,-31.356 31.356,-31.356" style="fill:rgb(59,147,255);fill-rule:nonzero;"/>
                    </g>
                </g>
            </g>
            <g transform="matrix(7.09921,0,0,7.09921,697.878,1882.99)">
                <g opacity="0.37">
                    <g transform="matrix(0,1,1,0,595.29,179.354)">
                        <path d="M31.356,-31.356C14.048,-31.356 0.016,-17.318 0.016,0.001C0.016,17.318 14.048,31.356 31.356,31.356C48.664,31.356 62.695,17.318 62.695,0.001C62.695,-17.318 48.664,-31.356 31.356,-31.356" style="fill:rgb(59,147,255);fill-rule:nonzero;"/>
                    </g>
                </g>
            </g>
            <g transform="matrix(1.11,0,0,1.11,-542.94,-912.012)">
                <path d="M4907.2,3704.11C4910.89,3697.68 4917.73,3693.71 4925.15,3693.71C4932.56,3693.71 4939.4,3697.68 4943.09,3704.11L4989.07,3784.28C4989.76,3785.48 4990.7,3786.53 4991.82,3787.34C4992.94,3788.16 4994.22,3788.73 4995.58,3789.01L5086.04,3807.97C5093.3,3809.49 5099.18,3814.77 5101.47,3821.82C5103.76,3828.87 5102.11,3836.6 5097.13,3842.1L5035.09,3910.6C5034.16,3911.63 5033.45,3912.85 5033.03,3914.16C5032.6,3915.49 5032.45,3916.88 5032.6,3918.26L5042.53,4010.15C5043.32,4017.52 5040.11,4024.75 5034.12,4029.1C5028.12,4033.46 5020.26,4034.28 5013.5,4031.24L4929.17,3993.41C4927.9,3992.84 4926.53,3992.55 4925.15,3992.55C4923.76,3992.55 4922.39,3992.84 4921.12,3993.41L4836.79,4031.24C4830.03,4034.28 4822.17,4033.46 4816.17,4029.1C4810.18,4024.75 4806.97,4017.52 4807.76,4010.15L4817.69,3918.26C4817.84,3916.88 4817.69,3915.49 4817.27,3914.16C4816.84,3912.85 4816.13,3911.63 4815.2,3910.6L4753.16,3842.1C4748.19,3836.6 4746.53,3828.87 4748.82,3821.82C4751.11,3814.77 4757,3809.49 4764.25,3807.97L4854.71,3789.01C4856.07,3788.73 4857.35,3788.16 4858.47,3787.34C4859.6,3786.53 4860.53,3785.48 4861.22,3784.28L4907.2,3704.11Z" style="fill:rgb(255,218,70);"/>
                <clipPath id="_clip1">
                    <path d="M4907.2,3704.11C4910.89,3697.68 4917.73,3693.71 4925.15,3693.71C4932.56,3693.71 4939.4,3697.68 4943.09,3704.11L4989.07,3784.28C4989.76,3785.48 4990.7,3786.53 4991.82,3787.34C4992.94,3788.16 4994.22,3788.73 4995.58,3789.01L5086.04,3807.97C5093.3,3809.49 5099.18,3814.77 5101.47,3821.82C5103.76,3828.87 5102.11,3836.6 5097.13,3842.1L5035.09,3910.6C5034.16,3911.63 5033.45,3912.85 5033.03,3914.16C5032.6,3915.49 5032.45,3916.88 5032.6,3918.26L5042.53,4010.15C5043.32,4017.52 5040.11,4024.75 5034.12,4029.1C5028.12,4033.46 5020.26,4034.28 5013.5,4031.24L4929.17,3993.41C4927.9,3992.84 4926.53,3992.55 4925.15,3992.55C4923.76,3992.55 4922.39,3992.84 4921.12,3993.41L4836.79,4031.24C4830.03,4034.28 4822.17,4033.46 4816.17,4029.1C4810.18,4024.75 4806.97,4017.52 4807.76,4010.15L4817.69,3918.26C4817.84,3916.88 4817.69,3915.49 4817.27,3914.16C4816.84,3912.85 4816.13,3911.63 4815.2,3910.6L4753.16,3842.1C4748.19,3836.6 4746.53,3828.87 4748.82,3821.82C4751.11,3814.77 4757,3809.49 4764.25,3807.97L4854.71,3789.01C4856.07,3788.73 4857.35,3788.16 4858.47,3787.34C4859.6,3786.53 4860.53,3785.48 4861.22,3784.28L4907.2,3704.11Z"/>
                </clipPath>
                <g clip-path="url(#_clip1)">
                    <g transform="matrix(0.900901,0,0,0.900901,489.375,370.952)">
                        <path d="M4904.4,3674.62C4904.4,3674.62 4916.68,3795.68 4922.35,3851.51C4923.08,3858.73 4926.72,3865.35 4932.43,3869.83C4938.14,3874.31 4945.43,3876.27 4952.62,3875.27C5011.86,3866.97 5146.3,3848.16 5146.3,3848.16C5077.52,3776.93 4994.86,3696.73 4904.4,3674.62Z" style="fill:rgb(255,235,156);"/>
                    </g>
                    <g transform="matrix(0.900901,0,0,0.900901,489.375,370.952)">
                        <path d="M4726.86,3879.11C4726.86,3879.11 4860.08,3906.6 4898.79,3914.59C4905.48,3915.97 4911.38,3919.88 4915.27,3925.5C4937.94,3958.3 5016.52,4072.03 5016.52,4072.03L4760.1,4089.73L4726.86,3879.11Z" style="fill:rgb(246,202,24);"/>
                    </g>
                </g>
            </g>
        </g>
    </g>
</svg>
