<?xml version="1.0" encoding="UTF-8" standalone="no"?>
<!DOCTYPE svg PUBLIC "-//W3C//DTD SVG 1.1//EN" "http://www.w3.org/Graphics/SVG/1.1/DTD/svg11.dtd">
<svg width="100%" height="100%" viewBox="0 0 3076 1574" version="1.1" xmlns="http://www.w3.org/2000/svg" xmlns:xlink="http://www.w3.org/1999/xlink" xml:space="preserve" xmlns:serif="http://www.serif.com/" style="fill-rule:evenodd;clip-rule:evenodd;stroke-miterlimit:10;">
    <g transform="matrix(1,0,0,1,-3620.14,-1512.65)">
        <g id="Layer-1" serif:id="Layer 1">
        </g>
        <g id="Layer-4" serif:id="Layer 4">
        </g>
        <g id="Artboard2" transform="matrix(0.932037,0,0,0.291429,350.24,1512.65)">
            <rect x="3508.33" y="0" width="3300" height="5400" style="fill:none;"/>
            <clipPath id="_clip1">
                <rect x="3508.33" y="0" width="3300" height="5400"/>
            </clipPath>
            <g clip-path="url(#_clip1)">
                <g transform="matrix(26.23,0,0,83.8876,2525.57,-21557.3)">
                    <clipPath id="_clip2">
                        <rect x="37.467" y="256.978" width="125.81" height="62.274"/>
                    </clipPath>
                    <g clip-path="url(#_clip2)">
                        <g transform="matrix(0,-1,-1,0,100.45,195.248)">
                            <path d="M-61.731,-61.731C-95.824,-61.731 -123.462,-34.093 -123.462,0C-123.462,34.093 -95.824,61.731 -61.731,61.731C-27.638,61.731 0,34.093 0,0C0,-34.093 -27.638,-61.731 -61.731,-61.731" style="fill:rgb(27,117,187);fill-rule:nonzero;"/>
                        </g>
                        <g transform="matrix(1,0,0,1,84.2929,252.989)">
                            <path d="M0,7.543L-10.322,7.543C-12.404,7.543 -14.093,5.855 -14.093,3.772C-14.093,1.689 -12.404,0 -10.322,0L0,0C2.083,0 3.771,1.689 3.771,3.772C3.771,5.855 2.083,7.543 0,7.543Z" style="fill:rgb(0,165,81);fill-rule:nonzero;stroke:rgb(0,165,81);stroke-width:0.17px;"/>
                        </g>
                        <g transform="matrix(1,0,0,1,136.655,288.171)">
                            <path d="M0,7.543L-21.427,7.543C-23.51,7.543 -25.198,5.855 -25.198,3.772C-25.198,1.689 -23.51,0 -21.427,0L0,0C2.083,0 3.771,1.689 3.771,3.772C3.771,5.855 2.083,7.543 0,7.543Z" style="fill:rgb(0,165,81);fill-rule:nonzero;stroke:rgb(0,165,81);stroke-width:0.17px;"/>
                        </g>
                        <g transform="matrix(1,0,0,1,109.957,261.695)">
                            <path d="M0,-9.083L-11.997,-9.083C-14.505,-9.083 -16.538,-7.05 -16.538,-4.541C-16.538,-2.033 -14.505,0 -11.997,0L0,0C2.508,0 4.542,-2.033 4.542,-4.541C4.542,-7.05 2.508,-9.083 0,-9.083Z" style="fill:rgb(241,241,242);fill-rule:nonzero;stroke:rgb(241,241,242);stroke-width:0.17px;"/>
                        </g>
                        <g transform="matrix(1,0,0,1,119.729,290.33)">
                            <path d="M0,-8.54L-12.054,-8.54C-14.412,-8.54 -16.324,-6.628 -16.324,-4.27C-16.324,-1.912 -14.412,0 -12.054,0L0,0C2.358,0 4.27,-1.912 4.27,-4.27C4.27,-6.628 2.358,-8.54 0,-8.54Z" style="fill:rgb(241,241,242);fill-rule:nonzero;stroke:rgb(241,241,242);stroke-width:0.17px;"/>
                        </g>
                        <g transform="matrix(1,0,0,1,125.588,277.362)">
                            <path d="M0,-6.086L-5.676,-6.086C-7.356,-6.086 -8.719,-4.724 -8.719,-3.043C-8.719,-1.362 -7.356,0 -5.676,0L0,0C1.681,0 3.043,-1.362 3.043,-3.043C3.043,-4.724 1.681,-6.086 0,-6.086Z" style="fill:rgb(241,241,242);fill-rule:nonzero;stroke:rgb(241,241,242);stroke-width:0.17px;"/>
                        </g>
                        <g transform="matrix(1,0,0,1,88.9886,268.416)">
                            <path d="M0,-4.106L-8.986,-4.106C-10.119,-4.106 -11.039,-3.187 -11.039,-2.053C-11.039,-0.919 -10.119,0 -8.986,0L0,0C1.134,0 2.053,-0.919 2.053,-2.053C2.053,-3.187 1.134,-4.106 0,-4.106Z" style="fill:rgb(241,241,242);fill-rule:nonzero;stroke:rgb(241,241,242);stroke-width:0.17px;"/>
                        </g>
                        <g>
                            <clipPath id="_clip3">
                                <path d="M38.564,256.883C38.564,290.975 66.201,318.614 100.294,318.614C134.387,318.614 162.025,290.975 162.025,256.883C162.025,222.79 134.387,195.152 100.294,195.152C66.201,195.152 38.564,222.79 38.564,256.883Z" clip-rule="nonzero"/>
                            </clipPath>
                            <g clip-path="url(#_clip3)">
                                <g transform="matrix(1,0,0,1,91.7138,285.806)">
                                    <path d="M0,14.272L-26.866,14.272C-30.807,14.272 -34.001,11.077 -34.001,7.136C-34.001,3.195 -30.807,0 -26.866,0L0,0C3.941,0 7.136,3.195 7.136,7.136C7.136,11.077 3.941,14.272 0,14.272Z" style="fill:rgb(0,165,81);fill-rule:nonzero;stroke:rgb(0,165,81);stroke-width:0.17px;"/>
                                </g>
                                <g transform="matrix(1,0,0,1,68.7936,300.079)">
                                    <path d="M0,4.227L7.209,4.227C5.489,3.482 5.518,0.684 7.287,0L0.001,0C1.747,0.714 1.744,3.512 0,4.227Z" style="fill:rgb(0,165,81);fill-rule:nonzero;stroke:rgb(0,165,81);stroke-width:0.17px;"/>
                                </g>
                                <g transform="matrix(1,0,0,1,83.6452,304.305)">
                                    <path d="M0,7.543L-26.687,7.543C-28.77,7.543 -30.458,5.855 -30.458,3.772C-30.458,1.689 -28.77,0 -26.687,0L0,0C2.083,0 3.771,1.689 3.771,3.772C3.771,5.855 2.083,7.543 0,7.543Z" style="fill:rgb(0,165,81);fill-rule:nonzero;stroke:rgb(0,165,81);stroke-width:0.17px;"/>
                                </g>
                                <g transform="matrix(1,0,0,1,163.875,253.643)">
                                    <path d="M0,19.497L-25.63,19.497C-31.014,19.497 -35.379,15.133 -35.379,9.749C-35.379,4.365 -31.014,0 -25.63,0L0,0C5.384,0 9.748,4.365 9.748,9.749C9.748,15.133 5.384,19.497 0,19.497Z" style="fill:rgb(0,165,81);fill-rule:nonzero;stroke:rgb(0,165,81);stroke-width:0.17px;"/>
                                </g>
                            </g>
                        </g>
                    </g>
                </g>
                <g transform="matrix(1.07292,0,0,3.43136,-4223.62,-126.351)">
                    <g transform="matrix(24.4473,0,0,24.4473,6290.49,-6243.27)">
                        <g transform="matrix(0,-1,-1,0,100.45,195.248)">
                            <path d="M-61.731,-61.731C-95.824,-61.731 -123.462,-34.093 -123.462,0C-123.462,34.093 -95.824,61.731 -61.731,61.731C-27.638,61.731 0,34.093 0,0C0,-34.093 -27.638,-61.731 -61.731,-61.731" style="fill:rgb(27,117,187);fill-rule:nonzero;"/>
                        </g>
                        <g transform="matrix(1,0,0,1,84.2929,252.989)">
                            <path d="M0,7.543L-10.322,7.543C-12.404,7.543 -14.093,5.855 -14.093,3.772C-14.093,1.689 -12.404,0 -10.322,0L0,0C2.083,0 3.771,1.689 3.771,3.772C3.771,5.855 2.083,7.543 0,7.543Z" style="fill:rgb(0,165,81);fill-rule:nonzero;stroke:rgb(0,165,81);stroke-width:0.17px;"/>
                        </g>
                        <g transform="matrix(1,0,0,1,136.655,288.171)">
                            <path d="M0,7.543L-21.427,7.543C-23.51,7.543 -25.198,5.855 -25.198,3.772C-25.198,1.689 -23.51,0 -21.427,0L0,0C2.083,0 3.771,1.689 3.771,3.772C3.771,5.855 2.083,7.543 0,7.543Z" style="fill:rgb(0,165,81);fill-rule:nonzero;stroke:rgb(0,165,81);stroke-width:0.17px;"/>
                        </g>
                        <g transform="matrix(1,0,0,1,109.957,261.695)">
                            <path d="M0,-9.083L-11.997,-9.083C-14.505,-9.083 -16.538,-7.05 -16.538,-4.541C-16.538,-2.033 -14.505,0 -11.997,0L0,0C2.508,0 4.542,-2.033 4.542,-4.541C4.542,-7.05 2.508,-9.083 0,-9.083Z" style="fill:rgb(241,241,242);fill-rule:nonzero;stroke:rgb(241,241,242);stroke-width:0.17px;"/>
                        </g>
                        <g transform="matrix(1,0,0,1,119.729,290.33)">
                            <path d="M0,-8.54L-12.054,-8.54C-14.412,-8.54 -16.324,-6.628 -16.324,-4.27C-16.324,-1.912 -14.412,0 -12.054,0L0,0C2.358,0 4.27,-1.912 4.27,-4.27C4.27,-6.628 2.358,-8.54 0,-8.54Z" style="fill:rgb(241,241,242);fill-rule:nonzero;stroke:rgb(241,241,242);stroke-width:0.17px;"/>
                        </g>
                        <g transform="matrix(1,0,0,1,125.588,277.362)">
                            <path d="M0,-6.086L-5.676,-6.086C-7.356,-6.086 -8.719,-4.724 -8.719,-3.043C-8.719,-1.362 -7.356,0 -5.676,0L0,0C1.681,0 3.043,-1.362 3.043,-3.043C3.043,-4.724 1.681,-6.086 0,-6.086Z" style="fill:rgb(241,241,242);fill-rule:nonzero;stroke:rgb(241,241,242);stroke-width:0.17px;"/>
                        </g>
                        <g transform="matrix(1,0,0,1,88.9886,268.416)">
                            <path d="M0,-4.106L-8.986,-4.106C-10.119,-4.106 -11.039,-3.187 -11.039,-2.053C-11.039,-0.919 -10.119,0 -8.986,0L0,0C1.134,0 2.053,-0.919 2.053,-2.053C2.053,-3.187 1.134,-4.106 0,-4.106Z" style="fill:rgb(241,241,242);fill-rule:nonzero;stroke:rgb(241,241,242);stroke-width:0.17px;"/>
                        </g>
                        <g>
                            <clipPath id="_clip4">
                                <path d="M38.72,256.883C38.72,290.975 66.322,318.614 100.372,318.614C134.422,318.614 162.025,290.975 162.025,256.883C162.025,222.79 134.422,195.152 100.372,195.152C66.322,195.152 38.72,222.79 38.72,256.883Z" clip-rule="nonzero"/>
                            </clipPath>
                            <g clip-path="url(#_clip4)">
                                <g transform="matrix(1,0,0,1,55.6526,263.296)">
                                    <path d="M0,7.543L-21.427,7.543C-23.51,7.543 -25.198,5.855 -25.198,3.772C-25.198,1.689 -23.51,0 -21.427,0L0,0C2.083,0 3.771,1.689 3.771,3.772C3.771,5.855 2.083,7.543 0,7.543Z" style="fill:rgb(0,165,81);fill-rule:nonzero;stroke:rgb(0,165,81);stroke-width:0.17px;"/>
                                </g>
                                <g transform="matrix(1,0,0,1,91.7138,285.806)">
                                    <path d="M0,14.272L-26.866,14.272C-30.807,14.272 -34.001,11.077 -34.001,7.136C-34.001,3.195 -30.807,0 -26.866,0L0,0C3.941,0 7.136,3.195 7.136,7.136C7.136,11.077 3.941,14.272 0,14.272Z" style="fill:rgb(0,165,81);fill-rule:nonzero;stroke:rgb(0,165,81);stroke-width:0.17px;"/>
                                </g>
                                <g transform="matrix(1,0,0,1,68.7936,300.079)">
                                    <path d="M0,4.227L7.209,4.227C5.489,3.482 5.518,0.684 7.287,0L0.001,0C1.747,0.714 1.744,3.512 0,4.227Z" style="fill:rgb(0,165,81);fill-rule:nonzero;stroke:rgb(0,165,81);stroke-width:0.17px;"/>
                                </g>
                                <g transform="matrix(1,0,0,1,83.6452,304.305)">
                                    <path d="M0,7.543L-26.687,7.543C-28.77,7.543 -30.458,5.855 -30.458,3.772C-30.458,1.689 -28.77,0 -26.687,0L0,0C2.083,0 3.771,1.689 3.771,3.772C3.771,5.855 2.083,7.543 0,7.543Z" style="fill:rgb(0,165,81);fill-rule:nonzero;stroke:rgb(0,165,81);stroke-width:0.17px;"/>
                                </g>
                                <g transform="matrix(1,0,0,1,163.875,253.643)">
                                    <path d="M0,19.497L-25.63,19.497C-31.014,19.497 -35.379,15.133 -35.379,9.749C-35.379,4.365 -31.014,0 -25.63,0L0,0C5.384,0 9.748,4.365 9.748,9.749C9.748,15.133 5.384,19.497 0,19.497Z" style="fill:rgb(0,165,81);fill-rule:nonzero;stroke:rgb(0,165,81);stroke-width:0.17px;"/>
                                </g>
                                <g transform="matrix(1,0,0,1,55.8573,290.912)">
                                    <path d="M0,-7.705L-10.447,-7.705C-12.575,-7.705 -14.3,-5.98 -14.3,-3.853C-14.3,-1.725 -12.575,0 -10.447,0L0,0C2.128,0 3.852,-1.725 3.852,-3.853C3.852,-5.98 2.128,-7.705 0,-7.705Z" style="fill:rgb(241,241,242);fill-rule:nonzero;stroke:rgb(241,241,242);stroke-width:0.17px;"/>
                                </g>
                            </g>
                        </g>
                        <g transform="matrix(6.12323e-17,1,-1,6.12323e-17,357.209,156.528)">
                            <g opacity="0.54">
                                <g transform="matrix(1,0,0,1,100.447,318.493)">
                                    <path d="M0,-123.464C-34.094,-123.464 -61.727,-95.826 -61.727,-61.732C-61.727,-27.638 -34.094,0 0,0" style="fill:rgb(46,49,145);fill-rule:nonzero;"/>
                                </g>
                            </g>
                        </g>
                    </g>
                    <g transform="matrix(1,0,0,1,3586.33,-1472.32)">
                        <path d="M5159.9,2.342C5992.82,2.342 6669.05,678.567 6669.05,1511.49C6669.05,2344.41 5992.82,3020.63 5159.9,3020.63C4326.98,3020.63 3650.76,2344.41 3650.76,1511.49C3650.76,678.567 4326.98,2.342 5159.9,2.342ZM5159.9,23.36C4338.58,23.36 3671.78,690.167 3671.78,1511.49C3671.78,2332.8 4338.58,2999.61 5159.9,2999.61C5981.22,2999.61 6648.03,2332.8 6648.03,1511.49C6648.03,690.167 5981.22,23.36 5159.9,23.36Z" style="fill:rgb(107,197,255);"/>
                    </g>
                </g>
            </g>
        </g>
    </g>
</svg>
